<?xml version="1.0" encoding="utf-8"?>
<!-- Generator: Adobe Illustrator 22.1.0, SVG Export Plug-In . SVG Version: 6.00 Build 0)  -->
<svg version="1.1" id="Layer_1" xmlns="http://www.w3.org/2000/svg" xmlns:xlink="http://www.w3.org/1999/xlink" x="0px" y="0px"
	 viewBox="0 0 20 24.3" style="enable-background:new 0 0 20 24.3;" xml:space="preserve">
<style type="text/css">
	.st0{fill:#D8D8D8;}
</style>
<path class="st0" d="M9.9,1c0.1-0.1,0.3-0.1,0.4,0c0.3,0.2,1,0.6,1,0.7c1.9,1.3,3.8,2.6,5.8,4C17.2,5.7,17.6,6,17.6,6l-1.2,0.9
	c0,0-0.1,0-0.2,0C16,6.6,14.7,5.8,14,5.3c-1.2-0.8-2.5-1.7-3.7-2.5c-0.2-0.1-0.3-0.1-0.4,0C8,4.2,6,5.5,4,6.8C3.9,6.9,3.8,7,3.6,6.8
	c-0.3-0.3-0.7-0.5-1-0.8C2.7,6,2.9,5.8,3,5.7c2-1.3,3.9-2.7,5.9-4C8.9,1.7,9.6,1.2,9.9,1z"/>
<path class="st0" d="M14.9,7.7c-0.5,0.2-0.9,0.4-1.4,0.6c-0.1,0-0.2,0-0.3-0.1c-0.9-0.6-1.9-1.3-2.8-1.9c-0.2-0.1-0.3-0.1-0.4,0
	C9,7.1,8,7.7,7,8.4C6.9,8.5,6.8,8.6,6.8,8.7c0,0.5,0,1,0,1.5c0,0.2,0.1,0.3,0.2,0.4c0.3,0.4,0.6,0.5,1.1,0.5c1.7,0,6.4,0,6.5,0
	c0,0.5,0,1,0,1.5c0,1.2,0,2.5,0,3.7c0,0.2,0,0.3-0.2,0.4c-1.4,0.9-2.7,1.8-4.1,2.8c-0.1,0.1-0.2,0.1-0.3,0c-1.4-0.9-2.7-1.9-4.1-2.8
	c0,0,0,0-0.1-0.1c0.4-0.4,0.8-0.7,1.2-1c0.7,0.5,1.5,1,2.2,1.5c0.3,0.2,0.5,0.4,0.8,0.6c0.1,0.1,0.2,0.1,0.3,0
	c0.9-0.6,1.8-1.2,2.6-1.8c0.1,0,0.1-0.2,0.1-0.2c0-0.8,0-1.6,0-2.4c0-0.1,0-0.2-0.1-0.3c-0.3-0.4-0.7-0.6-1.2-0.6c-2,0-5.5,0-6.4,0
	c0-0.1,0-0.2,0-0.3c0-1.4,0-2.9,0-4.3c0-0.2,0.1-0.3,0.2-0.4c1.5-1,3-2,4.4-3c0.1-0.1,0.2-0.1,0.3,0c1.5,1,3,2,4.5,3.1
	C14.8,7.7,14.8,7.7,14.9,7.7z"/>
<path class="st0" d="M2.6,18.1c0.4-0.3,0.8-0.6,1.1-0.8c0.1,0,0.2,0,0.3,0c1.1,0.8,2.3,1.5,3.4,2.3c0.8,0.6,1.7,1.2,2.5,1.7
	c0.2,0.1,0.3,0.1,0.4,0c1.9-1.3,3.8-2.6,5.7-3.9c0.1-0.1,0.3-0.1,0.4,0c0.3,0.3,0.7,0.5,1,0.8c-0.1,0.1-0.2,0.1-0.2,0.2
	c-1.8,1.2-6,4.2-6.9,4.8c-0.1,0.1-0.2,0.1-0.3,0c-0.5-0.3-1.7-1.2-2.1-1.5c-1.6-1.1-3.2-2.2-4.8-3.3C2.9,18.4,2.8,18.3,2.6,18.1z"/>
<path class="st0" d="M18.3,7c0.1,0.4,0.1,0.7,0.1,1.1c0,0.5,0,0.9,0,1.4c0,0.4,0.1,0.8,0.3,1.2c0.3,0.5,0.7,1,1,1.5
	c-0.1,0.1-0.2,0.2-0.3,0.3c-0.2,0.3-0.5,0.7-0.7,1.1c-0.2,0.4-0.4,0.8-0.3,1.3c0,0.7,0,1.3-0.1,2c0,0.1-0.1,0.2-0.1,0.4
	c-0.4-0.3-0.8-0.6-1.2-0.9c0,0-0.1-0.1-0.1-0.2c0-0.6,0-1.1,0-1.7c0-0.7,0.4-1.4,0.8-2c0.1-0.2,0.1-0.3,0-0.6
	c-0.5-0.8-0.8-1.6-0.8-2.6c0-0.4,0-0.7,0-1.1c0-0.1,0-0.2,0.1-0.3C17.5,7.6,17.9,7.4,18.3,7z"/>
<path class="st0" d="M1.9,7C1.9,7.4,1.8,7.8,1.8,8.1c0,0.5,0,0.9,0,1.4c0,0.4-0.1,0.8-0.3,1.2c-0.3,0.5-0.7,1-1,1.5
	c0.1,0.1,0.2,0.2,0.3,0.3c0.2,0.3,0.5,0.7,0.7,1.1c0.2,0.4,0.4,0.8,0.3,1.3c0,0.7,0,1.3,0.1,2c0,0.1,0.1,0.2,0.1,0.4
	c0.4-0.3,0.8-0.6,1.2-0.9c0,0,0.1-0.1,0.1-0.2c0-0.6,0-1.1,0-1.7c0-0.7-0.4-1.4-0.8-2c-0.1-0.2-0.1-0.3,0-0.6
	c0.5-0.8,0.8-1.6,0.8-2.6c0-0.4,0-0.7,0-1.1c0-0.1,0-0.2-0.1-0.3C2.8,7.7,2.4,7.4,1.9,7z"/>
</svg>
